<svg width="784" height="253" viewBox="0 0 784 253" fill="none" xmlns="http://www.w3.org/2000/svg">
<path d="M117.94 242.47C117.949 250.568 109.16 255.629 102.14 251.569L14.8514 201.077C11.4889 199.114 8.6994 196.303 6.76131 192.923C4.82322 189.543 3.80442 185.712 3.80664 181.815V63.3501L117.807 129.425L117.94 242.47Z" fill="#B42025"/>
<path d="M117.807 129.426L3.80664 63.3501L107.961 3.27023C110.721 1.63695 113.868 0.775391 117.075 0.775391C120.281 0.775391 123.428 1.63695 126.188 3.27023L218.022 56.3384C219.407 57.098 220.563 58.217 221.369 59.5781C222.174 60.9392 222.599 62.4922 222.599 64.0743C222.599 65.6564 222.174 67.2094 221.369 68.5705C220.563 69.9315 219.407 71.0505 218.022 71.8102L117.807 129.426Z" fill="#ED1D24"/>
<path d="M167.791 140.365L213.391 114.11L231.806 124.175L186.206 151.305L167.791 140.365Z" fill="#ED1D24"/>
<path d="M167.791 140.365L186.206 151.305L186.237 186.302L167.778 175.703L167.791 140.365Z" fill="#B42025"/>
<path d="M167.778 192.421C167.778 194.444 169.974 195.707 171.728 194.693L186.237 186.301L167.778 175.703V192.421Z" fill="#ED1D24"/>
<path d="M213.391 114.11L227.841 105.624C229.595 104.594 231.806 105.856 231.806 107.886V124.174L213.391 114.11Z" fill="#B42025"/>
<path d="M359.137 59.5029C356.797 54.9963 353.547 51.6163 349.387 49.3629C345.227 47.0229 340.417 45.8529 334.957 45.8529C328.977 45.8529 323.647 47.1963 318.967 49.8829C314.287 52.5696 310.603 56.3829 307.917 61.3229C305.317 66.2629 304.017 71.9829 304.017 78.4829C304.017 84.9829 305.317 90.7463 307.917 95.7729C310.603 100.713 314.287 104.526 318.967 107.213C323.647 109.9 328.977 111.243 334.957 111.243C343.017 111.243 349.56 108.99 354.587 104.483C359.613 99.9763 362.69 93.8663 363.817 86.1529H329.887V74.3229H379.677V85.8929C378.723 92.9129 376.21 99.3696 372.137 105.263C368.15 111.156 362.907 115.88 356.407 119.433C349.993 122.9 342.843 124.633 334.957 124.633C326.463 124.633 318.707 122.683 311.687 118.783C304.667 114.796 299.077 109.293 294.917 102.273C290.843 95.2529 288.807 87.3229 288.807 78.4829C288.807 69.6429 290.843 61.7129 294.917 54.6929C299.077 47.6729 304.667 42.2129 311.687 38.3129C318.793 34.3263 326.55 32.3329 334.957 32.3329C344.577 32.3329 353.113 34.7163 360.567 39.4829C368.107 44.1629 373.567 50.8363 376.947 59.5029H359.137Z" fill="#333333"/>
<path d="M454.744 86.2829C454.744 88.9696 454.57 91.3963 454.224 93.5629H399.494C399.927 99.2829 402.05 103.876 405.864 107.343C409.677 110.81 414.357 112.543 419.904 112.543C427.877 112.543 433.51 109.206 436.804 102.533H452.794C450.627 109.12 446.684 114.536 440.964 118.783C435.33 122.943 428.31 125.023 419.904 125.023C413.057 125.023 406.904 123.506 401.444 120.473C396.07 117.353 391.824 113.02 388.704 107.473C385.67 101.84 384.154 95.3396 384.154 87.9729C384.154 80.6063 385.627 74.1496 388.574 68.6029C391.607 62.9696 395.81 58.6363 401.184 55.6029C406.644 52.5696 412.884 51.0529 419.904 51.0529C426.664 51.0529 432.687 52.5263 437.974 55.4729C443.26 58.4196 447.377 62.5796 450.324 67.9529C453.27 73.2396 454.744 79.3496 454.744 86.2829ZM439.274 81.6029C439.187 76.1429 437.237 71.7663 433.424 68.4729C429.61 65.1796 424.887 63.5329 419.254 63.5329C414.14 63.5329 409.764 65.1796 406.124 68.4729C402.484 71.6796 400.317 76.0563 399.624 81.6029H439.274Z" fill="#333333"/>
<path d="M500.268 51.0529C505.901 51.0529 510.928 52.2229 515.348 54.5629C519.855 56.9029 523.365 60.3696 525.878 64.9629C528.391 69.5563 529.648 75.1029 529.648 81.6029V123.853H514.958V83.8129C514.958 77.3996 513.355 72.5029 510.148 69.1229C506.941 65.6563 502.565 63.9229 497.018 63.9229C491.471 63.9229 487.051 65.6563 483.758 69.1229C480.551 72.5029 478.948 77.3996 478.948 83.8129V123.853H464.128V52.2229H478.948V60.4129C481.375 57.4663 484.451 55.1696 488.178 53.5229C491.991 51.8763 496.021 51.0529 500.268 51.0529Z" fill="#333333"/>
<path d="M609.002 86.2829C609.002 88.9696 608.828 91.3963 608.482 93.5629H553.752C554.185 99.2829 556.308 103.876 560.122 107.343C563.935 110.81 568.615 112.543 574.162 112.543C582.135 112.543 587.768 109.206 591.062 102.533H607.052C604.885 109.12 600.942 114.536 595.222 118.783C589.588 122.943 582.568 125.023 574.162 125.023C567.315 125.023 561.162 123.506 555.702 120.473C550.328 117.353 546.082 113.02 542.962 107.473C539.928 101.84 538.412 95.3396 538.412 87.9729C538.412 80.6063 539.885 74.1496 542.832 68.6029C545.865 62.9696 550.068 58.6363 555.442 55.6029C560.902 52.5696 567.142 51.0529 574.162 51.0529C580.922 51.0529 586.945 52.5263 592.232 55.4729C597.518 58.4196 601.635 62.5796 604.582 67.9529C607.528 73.2396 609.002 79.3496 609.002 86.2829ZM593.532 81.6029C593.445 76.1429 591.495 71.7663 587.682 68.4729C583.868 65.1796 579.145 63.5329 573.512 63.5329C568.398 63.5329 564.022 65.1796 560.382 68.4729C556.742 71.6796 554.575 76.0563 553.882 81.6029H593.532Z" fill="#333333"/>
<path d="M644.386 125.023C638.753 125.023 633.683 124.026 629.176 122.033C624.756 119.953 621.246 117.18 618.646 113.713C616.046 110.16 614.659 106.216 614.486 101.883H629.826C630.086 104.916 631.516 107.473 634.116 109.553C636.803 111.546 640.139 112.543 644.126 112.543C648.286 112.543 651.493 111.763 653.746 110.203C656.086 108.556 657.256 106.476 657.256 103.963C657.256 101.276 655.956 99.2829 653.356 97.9829C650.843 96.6829 646.813 95.2529 641.266 93.6929C635.893 92.2196 631.516 90.7896 628.136 89.4029C624.756 88.0163 621.809 85.8929 619.296 83.0329C616.869 80.1729 615.656 76.4029 615.656 71.7229C615.656 67.9096 616.783 64.4429 619.036 61.3229C621.289 58.1163 624.496 55.6029 628.656 53.7829C632.903 51.9629 637.756 51.0529 643.216 51.0529C651.363 51.0529 657.906 53.1329 662.846 57.2929C667.873 61.3663 670.559 66.9563 670.906 74.0629H656.086C655.826 70.8563 654.526 68.2996 652.186 66.3929C649.846 64.4863 646.683 63.5329 642.696 63.5329C638.796 63.5329 635.806 64.2696 633.726 65.7429C631.646 67.2163 630.606 69.1663 630.606 71.5929C630.606 73.4996 631.299 75.1029 632.686 76.4029C634.073 77.7029 635.763 78.7429 637.756 79.5229C639.749 80.2163 642.696 81.1263 646.596 82.2529C651.796 83.6396 656.043 85.0696 659.336 86.5429C662.716 87.9296 665.619 90.0096 668.046 92.7829C670.473 95.5563 671.729 99.2396 671.816 103.833C671.816 107.906 670.689 111.546 668.436 114.753C666.183 117.96 662.976 120.473 658.816 122.293C654.743 124.113 649.933 125.023 644.386 125.023Z" fill="#333333"/>
<path d="M690.169 42.7329C687.483 42.7329 685.229 41.8229 683.409 40.0029C681.589 38.1829 680.679 35.9296 680.679 33.2429C680.679 30.5563 681.589 28.3029 683.409 26.4829C685.229 24.6629 687.483 23.7529 690.169 23.7529C692.769 23.7529 694.979 24.6629 696.799 26.4829C698.619 28.3029 699.529 30.5563 699.529 33.2429C699.529 35.9296 698.619 38.1829 696.799 40.0029C694.979 41.8229 692.769 42.7329 690.169 42.7329ZM697.449 52.2229V123.853H682.629V52.2229H697.449Z" fill="#333333"/>
<path d="M737.707 125.023C732.073 125.023 727.003 124.026 722.497 122.033C718.077 119.953 714.567 117.18 711.967 113.713C709.367 110.16 707.98 106.216 707.807 101.883H723.147C723.407 104.916 724.837 107.473 727.437 109.553C730.123 111.546 733.46 112.543 737.447 112.543C741.607 112.543 744.813 111.763 747.067 110.203C749.407 108.556 750.577 106.476 750.577 103.963C750.577 101.276 749.277 99.2829 746.677 97.9829C744.163 96.6829 740.133 95.2529 734.587 93.6929C729.213 92.2196 724.837 90.7896 721.457 89.4029C718.077 88.0163 715.13 85.8929 712.617 83.0329C710.19 80.1729 708.977 76.4029 708.977 71.7229C708.977 67.9096 710.103 64.4429 712.357 61.3229C714.61 58.1163 717.817 55.6029 721.977 53.7829C726.223 51.9629 731.077 51.0529 736.537 51.0529C744.683 51.0529 751.227 53.1329 756.167 57.2929C761.193 61.3663 763.88 66.9563 764.227 74.0629H749.407C749.147 70.8563 747.847 68.2996 745.507 66.3929C743.167 64.4863 740.003 63.5329 736.017 63.5329C732.117 63.5329 729.127 64.2696 727.047 65.7429C724.967 67.2163 723.927 69.1663 723.927 71.5929C723.927 73.4996 724.62 75.1029 726.007 76.4029C727.393 77.7029 729.083 78.7429 731.077 79.5229C733.07 80.2163 736.017 81.1263 739.917 82.2529C745.117 83.6396 749.363 85.0696 752.657 86.5429C756.037 87.9296 758.94 90.0096 761.367 92.7829C763.793 95.5563 765.05 99.2396 765.137 103.833C765.137 107.906 764.01 111.546 761.757 114.753C759.503 117.96 756.297 120.473 752.137 122.293C748.063 124.113 743.253 125.023 737.707 125.023Z" fill="#333333"/>
<path d="M298.629 174.913C299.413 173.541 300.561 172.421 302.073 171.553C303.585 170.685 305.307 170.251 307.239 170.251C309.311 170.251 311.173 170.741 312.825 171.721C314.477 172.701 315.779 174.087 316.731 175.879C317.683 177.643 318.159 179.701 318.159 182.053C318.159 184.377 317.683 186.449 316.731 188.269C315.779 190.089 314.463 191.503 312.783 192.511C311.131 193.519 309.283 194.023 307.239 194.023C305.251 194.023 303.501 193.589 301.989 192.721C300.505 191.853 299.385 190.747 298.629 189.403V193.645H294.807V162.565H298.629V174.913ZM314.253 182.053C314.253 180.317 313.903 178.805 313.203 177.517C312.503 176.229 311.551 175.249 310.347 174.577C309.171 173.905 307.869 173.569 306.441 173.569C305.041 173.569 303.739 173.919 302.535 174.619C301.359 175.291 300.407 176.285 299.679 177.601C298.979 178.889 298.629 180.387 298.629 182.095C298.629 183.831 298.979 185.357 299.679 186.673C300.407 187.961 301.359 188.955 302.535 189.655C303.739 190.327 305.041 190.663 306.441 190.663C307.869 190.663 309.171 190.327 310.347 189.655C311.551 188.955 312.503 187.961 313.203 186.673C313.903 185.357 314.253 183.817 314.253 182.053Z" fill="#333333"/>
<path d="M341.333 170.629L327.473 204.481H323.525L328.061 193.393L318.779 170.629H323.021L330.245 189.277L337.385 170.629H341.333Z" fill="#333333"/>
<path fill-rule="evenodd" clip-rule="evenodd" d="M739.3 165.818C739.482 165.228 739.026 165.092 738.586 165.092H737.418H727.067C726.551 165.092 726.172 165.168 725.959 165.818L715.806 198.485L715.381 199.861C715.259 200.223 715.472 200.48 715.806 200.556C715.866 200.571 715.927 200.571 715.988 200.571H727.795C728.281 200.571 728.569 200.39 728.752 199.861L737.418 171.895L739.3 165.818Z" fill="#ED1D24"/>
<path fill-rule="evenodd" clip-rule="evenodd" d="M711.253 192.62C707.792 194.146 703.027 195.673 699.096 195.22C697.153 194.993 695.408 194.267 694.133 192.801L699.096 191.577L715.806 187.465L716.17 187.374C716.246 184.729 716.489 182.809 715.806 180.919C715.442 179.906 714.804 178.909 713.742 177.805C712.528 176.551 711.025 175.568 709.249 174.888C707.443 174.192 705.379 173.845 703.072 173.845C701.737 173.845 700.416 173.966 699.096 174.208C698.201 174.374 697.32 174.585 696.425 174.858C694.209 175.538 692.13 176.52 690.202 177.76C688.245 179.015 686.605 180.451 685.255 182.083C684.602 182.869 684.056 183.671 683.585 184.487C683.069 185.379 682.675 186.316 682.386 187.253C681.658 189.611 681.718 191.849 682.553 193.95C682.826 194.645 683.175 195.28 683.585 195.885C684.435 197.124 685.589 198.152 687.046 199.014C689.185 200.284 691.766 200.949 694.786 200.919C696.197 200.903 697.654 200.828 699.096 200.662C704.135 200.102 709.128 198.545 712.543 195.25C714.926 192.952 712.148 192.227 711.253 192.62ZM693.86 187.147C694.088 186.407 694.528 185.726 695.211 185.107C695.894 184.487 696.713 183.973 697.654 183.595C698.14 183.398 698.626 183.247 699.111 183.141C699.551 183.051 699.976 183.005 700.386 183.005C701.312 183.005 702.147 183.202 702.921 183.58C703.679 183.958 704.211 184.502 704.514 185.167C704.545 185.243 704.575 185.318 704.605 185.409L699.096 186.951L693.587 188.493C693.663 187.964 693.754 187.48 693.86 187.147Z" fill="#ED1D24"/>
<path fill-rule="evenodd" clip-rule="evenodd" d="M685.012 175.855C685.012 175.855 685.831 174.812 684.723 174.495C684.359 174.389 683.98 174.298 683.6 174.207C682.189 173.905 680.656 173.754 679.017 173.754C676.619 173.754 674.221 174.086 671.823 174.782C669.425 175.462 667.179 176.445 665.084 177.699C662.975 178.969 661.184 180.42 659.742 182.053C659.059 182.809 658.482 183.595 657.981 184.396C657.405 185.333 656.965 186.286 656.631 187.268C655.841 189.641 655.902 191.894 656.813 194.025C657.116 194.751 657.511 195.416 657.981 196.036C658.907 197.245 660.137 198.273 661.669 199.12C663.991 200.389 666.784 201.039 670.047 201.039C672.764 201.039 675.48 200.601 678.167 199.739C679.001 199.467 679.153 199.044 679.001 198.379L677.514 191.652C677.393 191.138 677.028 190.942 676.512 191.153C675.45 191.561 674.357 191.773 673.204 191.773C671.58 191.773 670.381 191.304 669.607 190.382C668.818 189.445 668.636 188.387 669.045 187.147C669.288 186.407 669.759 185.726 670.502 185.091C671.231 184.456 672.126 183.958 673.143 183.565C674.16 183.187 675.147 182.975 676.103 182.975C677.12 182.975 678.015 183.172 678.85 183.565C679.487 183.867 679.533 183.761 679.776 183.429L683.615 177.881L685.012 175.855Z" fill="#ED1D24"/>
<path fill-rule="evenodd" clip-rule="evenodd" d="M659.879 177.654C659.697 176.763 659.105 175.901 657.997 175.281C656.631 174.51 654.476 174.102 651.319 174.404C650.955 174.435 646.462 175.069 645.719 175.13C644.095 175.251 643.503 174.918 641.226 174.858C640.543 174.873 639.587 174.888 639.026 174.918L633.076 193.92L631.301 199.619C631.103 200.072 631.543 200.465 632.075 200.465H633.076H643.123C643.639 200.465 644.186 199.77 644.201 199.725L647.965 187.072C648.511 185.545 650.606 183.656 653.869 184.925L657.982 179.952L659.879 177.654Z" fill="#ED1D24"/>
<path fill-rule="evenodd" clip-rule="evenodd" d="M634.836 177.14C634.942 176.777 634.958 176.279 634.396 176.173C633.926 176.188 633.47 176.203 633.06 176.203C627.506 176.203 627.293 174.616 621.632 173.981C620.919 173.905 620.115 173.83 619.219 173.784C612.678 173.422 606.501 177.579 603.268 182.295C602.494 183.414 601.857 184.547 601.325 185.666C598.912 190.76 598.988 195.582 601.325 198.455C601.735 198.953 602.191 199.392 602.737 199.755C608.701 203.216 615.364 197.865 616.305 193.511C615.804 193.995 606.622 197.291 610.523 187.208C612.056 183.262 615.091 180.224 618.506 180.934C620.115 181.207 620.539 182.764 620.114 184.578L615.425 199.876C615.303 200.163 615.425 200.465 615.774 200.465H621.632H626.762C627.384 200.465 627.551 200.284 627.703 199.86L633.06 182.794L634.836 177.14Z" fill="#ED1D24"/>
<path fill-rule="evenodd" clip-rule="evenodd" d="M586.164 173.769C584.297 173.739 582.78 173.799 581.474 173.905C579.35 174.071 577.817 174.374 576.345 174.646C573.947 175.084 573.81 175.145 569.181 174.616C568.437 174.676 568.088 175.16 567.952 175.492L557.207 209.459C557.04 209.958 557.1 210.17 557.935 210.17C560.409 210.17 560.515 210.155 562.959 210.14C565.387 210.124 566.829 210.124 569.196 210.124C569.652 210.124 570.031 209.777 570.092 209.459L573.233 199.18C573.309 199.225 573.567 199.331 573.628 199.377C575.692 200.404 578.606 200.813 581.474 200.737C584.176 200.677 586.832 200.193 588.729 199.422C593.525 197.2 597.198 192.619 598.245 187.434C599.808 179.559 594.299 173.814 586.164 173.769ZM587.424 186.724C586.544 191.078 584.616 192.725 581.474 193.118C580.109 193.285 578.5 193.224 576.648 193.043C576.512 193.028 576.375 193.012 576.238 192.982C576.193 192.937 576.163 192.907 576.147 192.892L576.117 192.967C574.994 192.74 575.373 192.514 575.647 191.531C576.39 188.916 577.377 186.437 578.136 183.822C578.758 182.34 579.942 181.055 581.474 180.571C581.778 180.481 582.097 180.405 582.431 180.375C586.711 179.846 588.198 182.839 587.424 186.724Z" fill="#ED1D24"/>
<path fill-rule="evenodd" clip-rule="evenodd" d="M486.072 176.143C484.145 174.979 481.671 174.389 478.65 174.389C476.07 174.389 471.396 175.115 468.573 176.082C468.33 176.158 467.116 176.188 466.767 176.097C464.794 175.976 465.234 175.221 459.983 175.538C459.755 176.339 459.027 178.576 458.298 180.874C457.57 183.187 456.78 185.56 456.462 186.603L452.652 198.954L452.212 200.375C452.06 200.722 452.288 201.04 452.652 201.161C452.759 201.191 452.865 201.221 452.986 201.221C456.705 201.221 460.438 201.221 464.156 201.221C464.672 201.221 465.037 201.146 465.234 200.48C465.947 198.168 466.661 195.855 467.359 193.542C468.087 191.153 468.831 188.765 469.559 186.392C469.711 185.923 469.984 185.515 470.394 185.198C470.804 184.88 474.659 184.714 475.145 184.714C475.843 184.714 476.465 185.182 476.617 185.439C476.738 185.651 476.966 186.256 476.784 186.815C475.403 191.335 473.976 195.855 472.595 200.375C472.413 200.904 472.731 201.221 473.202 201.221C476.981 201.221 480.79 201.221 484.585 201.221C485.177 201.221 485.586 201.04 485.799 200.405L487.757 194.026C488.44 191.804 489.123 189.566 489.806 187.344C490.504 185.046 490.534 182.885 489.927 180.904C489.305 178.894 488.015 177.307 486.072 176.143Z" fill="#ED1D24"/>
<path fill-rule="evenodd" clip-rule="evenodd" d="M452.653 187.903C453.199 186.074 453.275 184.366 452.911 182.749C452.835 182.431 452.759 182.129 452.653 181.827C452.228 180.557 451.514 179.408 450.513 178.365C449.283 177.095 447.75 176.112 445.914 175.417C444.062 174.722 441.968 174.374 439.615 174.374C438.295 174.374 436.99 174.48 435.685 174.722C434.729 174.888 433.788 175.115 432.831 175.402C430.57 176.097 428.46 177.08 426.472 178.335C424.484 179.604 422.799 181.056 421.434 182.688C420.128 184.26 419.172 185.893 418.595 187.631C418.565 187.722 418.535 187.828 418.504 187.919C417.791 190.231 417.821 192.408 418.595 194.479C418.626 194.555 418.641 194.615 418.671 194.691C419.521 196.822 421.054 198.515 423.255 199.8C425.44 201.085 428.081 201.72 431.147 201.72C432.664 201.72 434.167 201.569 435.669 201.266C437.218 200.964 438.75 200.496 440.283 199.861C443.319 198.621 445.944 196.943 448.16 194.827C450.361 192.726 451.848 190.443 452.592 188.024L452.653 187.903ZM441.209 188.039C440.83 189.294 439.934 190.337 438.553 191.184C437.627 191.743 436.686 192.121 435.7 192.317C435.199 192.408 434.683 192.469 434.152 192.469C432.619 192.469 431.496 192 430.752 191.078C430.008 190.141 429.842 189.067 430.221 187.828C430.449 187.087 430.904 186.407 431.602 185.772C432.3 185.137 433.135 184.638 434.091 184.245C434.637 184.018 435.184 183.867 435.7 183.761C436.094 183.686 436.489 183.656 436.884 183.656C437.84 183.656 438.69 183.852 439.464 184.245C440.238 184.623 440.769 185.167 441.088 185.848C441.406 186.528 441.452 187.253 441.209 188.039Z" fill="#ED1D24"/>
<path fill-rule="evenodd" clip-rule="evenodd" d="M419.172 176.218C419.339 175.704 418.99 175.523 418.61 175.493C418.565 175.493 418.504 175.493 418.459 175.493C414.664 175.493 410.87 175.493 407.091 175.493C406.59 175.493 406.211 175.568 406.013 176.218L398.471 200.496C398.334 200.919 398.637 201.206 399.078 201.206H410.718C411.189 201.206 411.492 201.025 411.644 200.496L418.61 178.047L419.172 176.218Z" fill="#ED1D24"/>
<path fill-rule="evenodd" clip-rule="evenodd" d="M412.95 173.195C414.999 173.195 416.896 172.696 418.596 171.698L418.672 171.653C420.387 170.625 421.51 169.386 422.041 167.692C422.36 166.649 422.299 166.135 421.95 165.38C421.556 164.533 420.873 163.944 419.871 163.43C419.476 163.218 419.051 163.052 418.596 162.916C417.928 162.719 417.2 162.598 416.411 162.598C415.181 162.598 413.861 162.704 412.495 163.157C411.159 163.611 410.158 164.231 409.171 165.108C408.185 165.984 407.532 166.544 407.213 167.572C406.712 169.159 407.016 170.489 408.094 171.562C409.186 172.651 410.825 173.195 412.95 173.195Z" fill="#ED1D24"/>
<path fill-rule="evenodd" clip-rule="evenodd" d="M396.027 189.491H382.505C381.473 189.309 380.835 187.782 381.215 186.77L388.044 166.755C388.317 165.969 387.559 165.576 387.027 165.576C382.414 165.576 380.122 165.576 375.447 165.576C374.78 165.576 374.173 165.818 373.899 166.619L365.871 189.642C365.051 191.97 365.279 194.736 365.825 196.354C367.13 200.103 370.439 201.372 373.565 201.342L392.673 201.312C394.1 201.282 395.238 197.064 395.739 195.673C396.285 194.101 396.832 192.363 397.241 190.912C397.53 189.853 396.786 189.491 396.027 189.491Z" fill="#ED1D24"/>
<path fill-rule="evenodd" clip-rule="evenodd" d="M557.905 167.314C557.571 166.816 557.131 166.77 556.964 166.8C556.918 166.8 556.903 166.816 556.903 166.816C556.888 166.831 556.888 166.831 556.797 166.846C556.326 166.861 555.051 166.861 553.959 166.574C553.018 166.377 551.591 165.425 551.591 165.425C551.591 165.425 552.395 164.004 551.545 163.384C550.316 162.447 547.903 161.676 545.824 159.862C544.761 158.849 544.64 158.275 544.291 157.579C543.532 157.368 542.196 157.519 541.726 159.212C541.24 158.532 540.876 158.275 540.041 157.882C538.918 157.504 538.099 157.232 536.809 156.869C535.883 156.551 534.896 156.143 534.289 155.75C533.303 156.446 532.772 157.171 533.045 158.501C532.468 158.093 531.451 157.791 530.176 158.108C528.977 158.229 528.37 158.244 526.974 158.501C526.17 158.562 525.35 158.471 524.561 158.305C523.999 159.318 523.939 160.95 524.591 161.842C521.799 161.615 520.767 162.583 518.399 162.266C517.443 164.624 519.461 166.937 520.023 167.345C519.34 167.617 518.156 167.783 517.625 167.934C518.126 171.396 519.416 176.309 521.237 179.498C522.876 182.295 524.09 184.336 525.957 186.301C526.079 186.195 526.428 185.878 526.625 185.726C527.869 184.744 528.674 184.185 530.404 183.504C532.043 182.839 534.79 182.34 537.613 182.93C543.76 184.169 548.556 189.657 547.949 196.943C547.599 199.679 546.719 201.795 545.035 203.866C544.443 204.516 543.911 205.106 543.304 205.605C541.21 207.313 538.311 208.432 535.564 208.432L535.458 206.95C536.035 206.935 536.399 206.905 536.945 206.814C542.272 205.877 546.325 201.236 546.325 195.673C546.325 189.445 541.225 184.351 534.957 184.351C531.39 184.351 528.203 185.999 526.109 188.584C524.88 187.45 523.483 186.044 523.028 185.485C521.708 183.852 519.886 181.101 518.839 179.075C517.428 176.203 516.32 173.512 515.682 170.806C515.166 168.569 514.832 166.392 514.59 164.321C514.043 159.393 514.316 152.787 515.546 149.25C506.03 146.272 505.666 158.774 506.834 164.17C508.595 171.789 511.311 176.611 514.332 180.496C517.321 184.215 518.308 185.076 520.812 187.344C522.087 188.478 523.498 189.611 524.789 190.549C524.546 191.017 524.348 191.516 524.166 192.015C523.316 191.501 522.542 191.002 521.753 190.458C520.964 189.914 520.235 189.37 519.598 188.886C516.988 186.89 514.848 185.046 512.328 182.174C510.993 180.662 509.794 179.121 508.716 177.412C505.802 172.787 503.693 167.224 503.541 164.261C500.065 164.563 499.109 167.556 498.699 169.249C497.804 172.998 500.414 176.702 501.902 179.105C504.922 183.232 509.217 186.437 512.237 188.296C515.713 190.307 516.168 190.624 519.036 191.849C520.767 192.62 522.224 193.194 523.741 193.738C523.65 194.267 523.605 194.796 523.59 195.341C521.89 194.978 520.099 194.539 518.384 194.01C515.121 192.982 512.465 191.955 508.397 189.702C505.165 187.692 501.72 185.545 498.942 181.433C497.06 183.036 497.045 185.545 497.273 187.147C497.774 190.655 501.978 192.952 503.92 194.071C508.413 196.263 511.827 196.505 514.787 197.003C517.883 197.245 519.052 197.321 521.313 197.276C522.208 197.23 522.967 197.2 523.696 197.155C523.772 197.714 523.893 198.258 524.045 198.787C523.21 198.938 522.436 199.165 521.48 199.286C517.746 199.755 513.649 200.118 509.293 199.195C506.075 198.5 502.16 197.291 499.929 195.537C499.155 197.774 499.807 199.392 500.581 200.783C502.084 203.473 505.605 204.214 507.623 204.471C511.266 204.773 513.998 204.38 516.517 203.715C518.824 203.05 520.296 202.536 522.178 201.765C522.633 201.584 523.772 201.1 524.758 200.647C525.016 201.176 525.335 201.69 525.669 202.173C525.031 202.657 524.348 203.05 523.605 203.504C521.025 205.121 517.2 206.572 514.453 207.026C511.873 207.464 508.929 207.646 506.47 206.814C506.591 208.991 507.578 210.231 508.792 210.835C510.644 211.757 513.224 211.651 514.924 211.44C518.065 210.729 520.129 209.263 521.708 208.069C523.514 206.708 524.151 206.058 525.153 205C525.745 204.426 526.276 203.866 526.701 203.413C527.08 203.806 527.49 204.184 527.915 204.516C527.672 204.849 527.384 205.197 527.111 205.544C526.944 205.741 526.777 205.953 526.595 206.179C524.819 208.417 522.618 210.382 520.281 211.667C518.323 212.74 516.805 213.375 514.362 213.677C515.257 215.204 516.198 215.733 517.2 215.975C519.234 216.459 521.055 215.295 522.36 214.675C524.424 213.284 525.547 211.818 526.504 210.382C527.035 209.596 527.414 209.006 527.718 208.447C528.036 207.887 528.294 207.373 528.598 206.739C528.704 206.527 529.008 205.953 529.251 205.454C529.675 205.696 530.1 205.907 530.556 206.104C530.419 206.557 530.237 207.101 530.1 207.464C530.025 207.676 529.964 207.857 529.918 207.963C529.084 210.019 528.188 211.47 526.777 213.329C525.729 214.705 523.923 215.96 522.497 216.428C523.195 217.471 524.181 217.592 525.016 217.668C526.64 217.804 527.778 216.897 528.598 216.126C529.903 214.75 530.708 212.498 531.041 211.243C531.208 210.518 531.33 210.004 531.421 209.52C531.512 209.036 531.588 208.598 531.664 208.024C531.709 207.691 531.785 207.086 531.861 206.557C531.922 206.572 532.058 206.603 532.119 206.618C532.331 206.663 532.514 206.708 532.711 206.754C532.908 206.784 533.106 206.814 533.333 206.844C533.379 207.117 533.318 207.494 533.272 208.16C533.272 208.28 533.257 208.401 533.257 208.537C533.181 210.231 533.075 212.075 532.665 213.193C532.331 214.1 531.724 215.385 530.662 216.443C531.451 216.821 532.301 216.836 533.136 216.61C534.972 216.096 535.564 214.917 535.731 214.1C536.095 212.876 535.928 211.47 535.686 209.989C535.64 209.732 535.625 209.52 535.579 209.248C536.019 209.218 536.323 209.187 537.036 209.127C545.596 207.918 549.117 203.579 550.878 198.062C551.09 197.2 551.075 197.291 551.181 196.943C551.196 196.898 551.363 196.505 551.424 196.233C552.426 196.414 553.336 195.9 552.911 194.645C552.805 194.373 552.866 194.192 552.502 194.01C552.304 193.92 551.879 193.33 551.758 193.164C550.741 191.667 551.454 190.579 551.454 190.579C552.304 190.413 553.352 189.324 552.744 188.538C552.456 188.175 551.333 187.571 550.787 187.178C550.058 186.649 549.664 185.53 549.497 185.333C548.95 184.23 548.92 183.051 549.102 181.902L549.284 181.539C549.436 181.237 550.817 181.826 551.318 181.902C551.895 181.993 553.306 181.554 553.655 180.874C554.08 180.224 554.399 178.395 554.323 177.775L552.836 178.471C552.623 178.501 552.244 178.486 551.97 178.455C551.06 178.365 550.134 177.7 549.815 177.17C549.284 175.084 550.271 172.515 552.092 171.97C553.002 171.532 553.807 171.668 554.596 171.955C555.355 172.454 555.294 172.998 555.537 173.905C556.174 173.406 556.569 172.787 557.1 172.227C557.464 171.577 557.798 170.353 557.874 169.642L557.586 168.781C557.616 168.781 558.39 168.055 557.905 167.314ZM539.571 163.127L538.114 163.928C537.871 164.699 538.493 165.395 538.266 165.591C537.947 165.697 537.613 165.546 537.173 164.987C536.733 164.442 536.444 163.807 536.991 162.855C537.537 161.903 538.66 161.54 539.571 161.933C540.481 162.341 540.891 163.082 540.997 163.626C541.013 163.626 540.603 163.309 539.571 163.127ZM550.043 168.07C549.739 167.481 548.601 166.559 548.601 166.09C549.603 166.09 550.605 165.954 551.363 165.576C551.348 165.591 550.529 167.178 550.043 168.07Z" fill="#ED1D24"/>
</svg>
